<svg xmlns="http://www.w3.org/2000/svg" viewBox="0 0 20 20" width="20" height="20" fill="none">
<svg x="2.0" y="1.0" width="16.0" height="17.0" viewBox="0 0 16 17" preserveAspectRatio="none" overflow="visible">
<path id="&#240;&#159;&#142;&#168; Color" d="M11.5 0C11.7761 0 12 0.223858 12 0.5V1.03809C12.31 1.05494 12.5956 1.07893 12.8584 1.11426C13.7307 1.23153 14.4269 1.47782 14.9746 2.02539C15.5223 2.57307 15.7684 3.26931 15.8857 4.1416C16.0011 4.99956 16 6.10003 16 7.5V10.5C16 11.9 16.0011 13.0004 15.8857 13.8584C15.7685 14.7308 15.5223 15.4269 14.9746 15.9746C14.4269 16.5223 13.7308 16.7685 12.8584 16.8857C12.0004 17.0011 10.8999 17 9.5 17H6.5C5.10006 17 3.99955 17.0011 3.1416 16.8857C2.26934 16.7684 1.57306 16.5223 1.02539 15.9746C0.477816 15.4269 0.231532 14.7307 0.114258 13.8584C-0.00106251 13.0004 3.76568e-07 11.8999 3.76568e-07 10.5V7.5C2.81624e-07 6.10003 -0.00108612 4.99956 0.114258 4.1416C0.231553 3.2693 0.477719 2.57308 1.02539 2.02539C1.57307 1.47771 2.26932 1.23156 3.1416 1.11426C3.40437 1.07893 3.69012 1.05495 4 1.03809V0.5C4 0.223858 4.22386 2.57704e-07 4.5 0C4.77614 0 5 0.223858 5 0.5V1.00781C5.45697 1.00124 5.95584 1 6.5 1H9.5C10.0441 1 10.5431 1.00125 11 1.00781V0.5C11 0.223858 11.2239 0 11.5 0ZM1.00879 6C1.00231 6.4441 1 6.94085 1 7.5V10.5C1 11.9282 1.00118 12.9497 1.10547 13.7256C1.20784 14.4867 1.40166 14.9367 1.73242 15.2676C2.06328 15.5984 2.51332 15.7921 3.27441 15.8945C4.05025 15.9988 5.07178 16 6.5 16H9.5C10.9282 16 11.9497 15.9988 12.7256 15.8945C13.4868 15.7921 13.9367 15.5985 14.2676 15.2676C14.5985 14.9367 14.7921 14.4868 14.8945 13.7256C14.9988 12.9497 15 11.9283 15 10.5V7.5C15 6.94085 14.9977 6.4441 14.9912 6H1.00879ZM6.5 2C5.94085 2 5.4441 2.00231 5 2.00879V2.5C5 2.77614 4.77614 3 4.5 3C4.22386 3 4 2.77614 4 2.5V2.04004C3.7359 2.05536 3.49509 2.0758 3.27441 2.10547C2.51329 2.20787 2.06329 2.40156 1.73242 2.73242C1.40156 3.0633 1.20787 3.51327 1.10547 4.27441C1.0758 4.49509 1.05634 4.7359 1.04102 5H14.959C14.9437 4.73591 14.9242 4.49508 14.8945 4.27441C14.7921 3.51329 14.5984 3.06329 14.2676 2.73242C13.9367 2.40165 13.4867 2.20784 12.7256 2.10547C12.5049 2.0758 12.2642 2.05536 12 2.04004V2.5C12 2.77614 11.7761 3 11.5 3C11.2239 3 11 2.77614 11 2.5V2.00879C10.556 2.00232 10.059 2 9.5 2H6.5Z" fill="var(--fill-0, black)"/>
</svg>
</svg>
