<svg preserveAspectRatio="none" width="100%" height="100%" overflow="visible" style="display: block;" viewBox="0 0 8.77483 9.17007" fill="none" xmlns="http://www.w3.org/2000/svg">
<path id="Vector" fill-rule="evenodd" clip-rule="evenodd" d="M8.77483 7.18763C8.31826 7.82405 7.70562 8.33864 6.99288 8.68437C6.28014 9.03011 5.49002 9.19597 4.6947 9.1668C3.44959 9.1668 2.25547 8.68391 1.37505 7.82437C0.494619 6.96483 0 5.79904 0 4.58346C0 3.36789 0.494619 2.2021 1.37505 1.34256C2.25547 0.483014 3.44959 0.000128484 4.6947 0.000128484C5.42061 -0.00512539 6.13824 0.150813 6.79334 0.456153C7.44843 0.761494 8.02385 1.20824 8.47608 1.76263L6.76891 3.23346C6.53132 2.91201 6.22001 2.64927 5.85986 2.46623C5.49971 2.28319 5.1007 2.18493 4.6947 2.17929C4.37131 2.17752 4.05085 2.23917 3.75231 2.36057C3.45378 2.48197 3.18325 2.66066 2.95677 2.88604C2.73029 3.11142 2.55248 3.3789 2.43387 3.67262C2.31525 3.96635 2.25826 4.28033 2.26626 4.59596C2.25536 4.91614 2.31236 5.23506 2.43367 5.53271C2.55498 5.83037 2.73799 6.10034 2.97122 6.32569C3.20445 6.55103 3.48286 6.7269 3.78899 6.84224C4.09512 6.95758 4.42236 7.00992 4.75019 6.99596C5.17594 6.98416 5.59243 6.87187 5.96405 6.6687C6.33567 6.46553 6.65137 6.17752 6.88414 5.8293L8.77483 7.18763Z" fill="var(--fill-0, #343331)"/>
</svg>
